<svg width="1265" height="439" xmlns="http://www.w3.org/2000/svg" xmlns:xlink="http://www.w3.org/1999/xlink" overflow="hidden"><defs><clipPath id="clip0"><rect x="24" y="283" width="1265" height="439"/></clipPath></defs><g clip-path="url(#clip0)" transform="translate(-24 -283)"><path d="M26.5001 327.5 165.5 327.5 165.5 447.333 142.333 470.5 26.5001 470.5Z" fill="#DBEEF4" fill-rule="evenodd"/><path d="M142.333 470.5 146.966 451.966 165.5 447.333Z" fill="#B0BFC4" fill-rule="evenodd"/><path d="M142.333 470.5 146.966 451.966 165.5 447.333 142.333 470.5 26.5001 470.5 26.5001 327.5 165.5 327.5 165.5 447.333" stroke="#000000" stroke-width="2.66667" stroke-linejoin="round" stroke-miterlimit="10" fill="none" fill-rule="evenodd"/><text font-family="Calibri,Calibri_MSFontService,sans-serif" font-weight="400" font-size="24" transform="translate(59.1847 351)">Prompt</text><rect x="178.5" y="287.5" width="616" height="414" stroke="#385D8A" stroke-width="2.66667" stroke-linejoin="round" stroke-miterlimit="10" fill="#CCC1DA"/><rect x="231.5" y="391.5" width="511" height="56" stroke="#000000" stroke-width="2.66667" stroke-linejoin="round" stroke-miterlimit="10" fill="#95B3D7"/><text font-family="Calibri,Calibri_MSFontService,sans-serif" font-weight="400" font-size="24" transform="translate(343.41 426)">Taiwan LLMA2 13B/7B Model</text><path d="M170.5 402.25 191.5 402.25 191.5 391.5 212.5 413 191.5 434.5 191.5 423.75 170.5 423.75Z" stroke="#000000" stroke-width="2.66667" stroke-miterlimit="8" fill="#FCD5B5" fill-rule="evenodd"/><path d="M773.5 410.5 790 410.5 790 399.5 806.5 421.5 790 443.5 790 432.5 773.5 432.5Z" stroke="#000000" stroke-width="2.66667" stroke-miterlimit="8" fill="#FCD5B5" fill-rule="evenodd"/><text fill="#C00000" font-family="Calibri,Calibri_MSFontService,sans-serif" font-weight="700" font-size="24" transform="translate(376.144 362)">Freeze Pretrained Model</text><path d="M378.5 517.5 452.5 558.059 452.5 600.941 378.5 641.5Z" stroke="#984807" stroke-width="2.66667" stroke-linejoin="round" stroke-miterlimit="10" fill="#FAC090" fill-rule="evenodd"/><path d="M543.5 641.5 469.5 600.941 469.5 558.059 543.5 517.5Z" stroke="#984807" stroke-width="2.66667" stroke-linejoin="round" stroke-miterlimit="10" fill="#FAC090" fill-rule="evenodd"/><text font-family="Calibri,Calibri_MSFontService,sans-serif" font-weight="400" font-size="24" transform="translate(338.252 670)">Low Rank Adapter Model</text><path d="M40.5001 374.5 155.5 374.5 155.5 436.166 143.166 448.5 40.5001 448.5Z" fill="#D9D9D9" fill-rule="evenodd"/><path d="M143.166 448.5 145.633 438.633 155.5 436.166Z" fill="#AEAEAE" fill-rule="evenodd"/><path d="M143.166 448.5 145.633 438.633 155.5 436.166 143.166 448.5 40.5001 448.5 40.5001 374.5 155.5 374.5 155.5 436.166" stroke="#000000" stroke-width="2.66667" stroke-linejoin="round" stroke-miterlimit="10" fill="none" fill-rule="evenodd"/><text font-family="Calibri,Calibri_MSFontService,sans-serif" font-weight="400" font-size="24" transform="translate(52.945 398)">Question <tspan font-size="24" x="12.6133" y="29">Asking</tspan></text><path d="M750.5 485C750.5 476.992 757.216 470.5 765.5 470.5 773.784 470.5 780.5 476.992 780.5 485 780.5 493.008 773.784 499.5 765.5 499.5 757.216 499.5 750.5 493.008 750.5 485Z" stroke="#385D8A" stroke-width="2.66667" stroke-linejoin="round" stroke-miterlimit="10" fill="#4F81BD" fill-rule="evenodd"/><text fill="#FFFFFF" font-family="Calibri,Calibri_MSFontService,sans-serif" font-weight="700" font-size="24" transform="translate(759.191 492)">+</text><path d="M340.5 568.5 357 568.5 357 557.5 373.5 579.5 357 601.5 357 590.5 340.5 590.5Z" stroke="#000000" stroke-width="2.66667" stroke-miterlimit="8" fill="#FCD5B5" fill-rule="evenodd"/><path d="M552.5 570.25 569 570.25 569 559.5 585.5 581 569 602.5 569 591.75 552.5 591.75Z" stroke="#000000" stroke-width="2.66667" stroke-miterlimit="8" fill="#FCD5B5" fill-rule="evenodd"/><rect x="596.5" y="537.5" width="147" height="93" stroke="#000000" stroke-width="2.66667" stroke-linejoin="round" stroke-miterlimit="10" fill="#DCE6F2"/><text font-family="Calibri,Calibri_MSFontService,sans-serif" font-weight="400" font-size="24" transform="translate(608.384 562)">Chinese Text<tspan font-size="24" x="34.8867" y="29">LORA </tspan><tspan font-size="24" x="6" y="58">Embedders</tspan></text><path d="M805.5 385.5 907.5 385.5 907.5 444.667 895.667 456.5 805.5 456.5Z" fill="#FDEADA" fill-rule="evenodd"/><path d="M895.667 456.5 898.033 447.033 907.5 444.667Z" fill="#CBBCAF" fill-rule="evenodd"/><path d="M895.667 456.5 898.033 447.033 907.5 444.667 895.667 456.5 805.5 456.5 805.5 385.5 907.5 385.5 907.5 444.667" stroke="#000000" stroke-width="2.66667" stroke-linejoin="round" stroke-miterlimit="10" fill="none" fill-rule="evenodd"/><text font-family="Calibri,Calibri_MSFontService,sans-serif" font-weight="400" font-size="24" transform="translate(819.523 408)">Consult <tspan font-size="24" x="1.92004" y="29">Output</tspan></text><rect x="187.5" y="524.5" width="101" height="112" stroke="#000000" stroke-width="2.66667" stroke-linejoin="round" stroke-miterlimit="10" fill="#DCE6F2"/><text font-family="Calibri,Calibri_MSFontService,sans-serif" font-weight="400" font-size="24" transform="translate(199.213 559)">Chinese <tspan font-size="24" x="18.7133" y="29">Text</tspan><tspan font-size="24" x="-1.48" y="58">Encoder</tspan></text><rect x="940.5" y="357.5" width="171" height="113" stroke="#000000" stroke-width="2.66667" stroke-linejoin="round" stroke-miterlimit="10" fill="#95B3D7"/><text fill="#121212" font-family="Calibri,Calibri_MSFontService,sans-serif" font-weight="400" font-size="24" transform="translate(952.914 407)">A<tspan font-size="24" x="13.8334" y="0">utoregressive </tspan><tspan font-size="24" x="36.2" y="29">Models</tspan></text><path d="M962.5 511.5 1090.5 511.5 1090.5 568.167 1079.17 579.5 962.5 579.5Z" fill="#DBEEF4" fill-rule="evenodd"/><path d="M1079.17 579.5 1081.43 570.433 1090.5 568.167Z" fill="#B0BFC4" fill-rule="evenodd"/><path d="M1079.17 579.5 1081.43 570.433 1090.5 568.167 1079.17 579.5 962.5 579.5 962.5 511.5 1090.5 511.5 1090.5 568.167" stroke="#000000" stroke-width="2.66667" stroke-linejoin="round" stroke-miterlimit="10" fill="none" fill-rule="evenodd"/><text font-family="Calibri,Calibri_MSFontService,sans-serif" font-weight="400" font-size="24" transform="translate(1001.5 533)">S,V,O <tspan font-size="24" x="-24.7467" y="29">Extraction</tspan><tspan fill="#C00000" font-weight="700" font-size="24" x="-654.922" y="-34">Training Adapter Model</tspan></text><path d="M912.5 407.25 929 407.25 929 396.5 945.5 418 929 439.5 929 428.75 912.5 428.75Z" stroke="#000000" stroke-width="2.66667" stroke-miterlimit="8" fill="#FCD5B5" fill-rule="evenodd"/><path d="M0 11 35 11 35 0 57 22 35 44 35 33 0 33Z" stroke="#000000" stroke-width="2.66667" stroke-miterlimit="8" fill="#FCD5B5" fill-rule="evenodd" transform="matrix(1.83697e-16 1 1 -1.83697e-16 1002.5 454.5)"/><path d="M0 11 35 11 35 0 57 22 35 44 35 33 0 33Z" stroke="#000000" stroke-width="2.66667" stroke-miterlimit="8" fill="#FCD5B5" fill-rule="evenodd" transform="matrix(1.83697e-16 1 1 -1.83697e-16 1000.5 574.5)"/><text fill="#C00000" font-family="Calibri,Calibri_MSFontService,sans-serif" font-weight="700" font-size="24" transform="translate(949.193 313)">Training Language <tspan font-size="24" x="0" y="29">Extraction Model</tspan><tspan fill="#4F6228" font-size="24" x="173.818" y="86">Learning From</tspan><tspan fill="#4F6228" font-size="24" x="173.818" y="115">Pre</tspan><tspan fill="#4F6228" font-size="24" x="206.885" y="115">-</tspan><tspan fill="#4F6228" font-size="24" x="214.218" y="115">trained </tspan><tspan fill="#4F6228" font-size="24" x="173.818" y="144">LLM Model</tspan></text><path d="M745.5 534.334C745.5 530.56 748.56 527.5 752.334 527.5L779.667 527.5C783.441 527.5 786.5 530.56 786.5 534.334L786.5 631.667C786.5 635.441 783.441 638.5 779.667 638.5L752.334 638.5C748.56 638.5 745.5 635.441 745.5 631.667Z" stroke="#000000" stroke-width="2.66667" stroke-linejoin="round" stroke-miterlimit="10" stroke-dasharray="10.6667 8" fill="#FFFFFF" fill-rule="evenodd"/><rect x="755.5" y="609.5" width="18" height="16" stroke="#385D8A" stroke-width="2.66667" stroke-linejoin="round" stroke-miterlimit="10" fill="#F79646"/><rect x="757.5" y="562.5" width="16" height="16" stroke="#385D8A" stroke-width="2.66667" stroke-linejoin="round" stroke-miterlimit="10" fill="#F79646"/><rect x="758.5" y="536.5" width="15" height="15" stroke="#385D8A" stroke-width="2.66667" stroke-linejoin="round" stroke-miterlimit="10" fill="#F79646"/><text font-family="Calibri,Calibri_MSFontService,sans-serif" font-weight="400" font-size="24" transform="matrix(6.12323e-17 1 -1 6.12323e-17 763.441 590)">…</text><path d="M294.5 531.167C294.5 527.485 297.485 524.5 301.167 524.5L327.833 524.5C331.515 524.5 334.5 527.485 334.5 531.167L334.5 628.833C334.5 632.515 331.515 635.5 327.833 635.5L301.167 635.5C297.485 635.5 294.5 632.515 294.5 628.833Z" stroke="#000000" stroke-width="2.66667" stroke-linejoin="round" stroke-miterlimit="10" stroke-dasharray="10.6667 8" fill="#FFFFFF" fill-rule="evenodd"/><rect x="304.5" y="606.5" width="18" height="16" stroke="#385D8A" stroke-width="2.66667" stroke-linejoin="round" stroke-miterlimit="10" fill="#77933C"/><rect x="305.5" y="559.5" width="17" height="16" stroke="#385D8A" stroke-width="2.66667" stroke-linejoin="round" stroke-miterlimit="10" fill="#77933C"/><rect x="306.5" y="533.5" width="16" height="15" stroke="#385D8A" stroke-width="2.66667" stroke-linejoin="round" stroke-miterlimit="10" fill="#77933C"/><text font-family="Calibri,Calibri_MSFontService,sans-serif" font-weight="400" font-size="24" transform="matrix(6.12323e-17 1 -1 6.12323e-17 314.033 583)">…</text><path d="M0 11 35 11 35 0 57 22 35 44 35 33 0 33Z" stroke="#000000" stroke-width="2.66667" stroke-miterlimit="8" fill="#FCD5B5" fill-rule="evenodd" transform="matrix(1.83697e-16 1 1 -1.83697e-16 1000.5 663.5)"/><path d="M864.5 632.5 1189.5 632.5 1189.5 664.167 1183.17 670.5 864.5 670.5Z" fill="#D99694" fill-rule="evenodd"/><path d="M1183.17 670.5 1184.43 665.433 1189.5 664.167Z" fill="#AE7977" fill-rule="evenodd"/><path d="M1183.17 670.5 1184.43 665.433 1189.5 664.167 1183.17 670.5 864.5 670.5 864.5 632.5 1189.5 632.5 1189.5 664.167" stroke="#000000" stroke-width="2.66667" stroke-linejoin="round" stroke-miterlimit="10" fill="none" fill-rule="evenodd"/><text font-family="Calibri,Calibri_MSFontService,sans-serif" font-weight="400" font-size="24" transform="translate(874.391 656)">Compose a Complete Sentence<tspan font-weight="700" font-size="24" x="183.748" y="43">Image Generation</tspan><tspan fill="#121212" font-size="19" x="-673.895" y="8">Text Embedding</tspan><tspan font-weight="700" font-size="24" x="-679.058" y="-342">Chat Bible Text </tspan><tspan font-weight="700" font-size="24" x="-679.058" y="-313">Generator</tspan><tspan font-weight="700" font-size="24" x="188.09" y="-51">Sentence Completion</tspan><tspan font-weight="700" font-size="24" x="-6.52289" y="-95">Subject</tspan><tspan font-weight="700" font-size="24" x="7.09717" y="-66">Verb</tspan><tspan font-weight="700" font-size="24" x="-2.52289" y="-37">Object</tspan></text><path d="M177.661 470.154 193.526 483.705 200.585 475.441 202.333 505.521 172.35 508.499 179.409 500.234 163.543 486.683Z" stroke="#000000" stroke-width="2.66667" stroke-miterlimit="8" fill="#FCD5B5" fill-rule="evenodd"/></g></svg>